<mxfile host="app.diagrams.net" modified="2021-02-20T09:21:56.213Z" agent="5.0 (Windows NT 10.0; Win64; x64) AppleWebKit/537.36 (KHTML, like Gecko) Chrome/87.0.4280.88 Safari/537.36" etag="9QGLxQPC0as2Ty8-iqBu" version="14.4.2" type="github">
  <diagram name="Page-1" id="d9b1e647-80fa-b4a2-5024-87a742678bcc">
    <mxGraphModel dx="1422" dy="762" grid="1" gridSize="10" guides="1" tooltips="1" connect="1" arrows="1" fold="1" page="1" pageScale="1" pageWidth="1100" pageHeight="850" background="#ffffff" math="0" shadow="0">
      <root>
        <mxCell id="0" />
        <mxCell id="1" parent="0" />
        <mxCell id="57fe6abec08f04cb-1" value="一周&lt;font style=&quot;font-size: 20px&quot;&gt;(5d)&lt;/font&gt;&lt;br&gt;&lt;font style=&quot;font-size: 20px&quot;&gt;（25-27）&lt;/font&gt;" style="shape=step;whiteSpace=wrap;html=1;fontSize=28;fontColor=#FFFFFF;strokeColor=none;fillColor=#0080FF;" parent="1" vertex="1">
          <mxGeometry x="90" y="180" width="170" height="80" as="geometry" />
        </mxCell>
        <mxCell id="Bvc8APwwQaWXMPsRPmAm-2" value="" style="edgeStyle=orthogonalEdgeStyle;rounded=0;orthogonalLoop=1;jettySize=auto;html=1;" edge="1" parent="1" source="57fe6abec08f04cb-2" target="57fe6abec08f04cb-9">
          <mxGeometry relative="1" as="geometry" />
        </mxCell>
        <mxCell id="57fe6abec08f04cb-2" value="二周&lt;font style=&quot;font-size: 20px&quot;&gt;(5d)&lt;/font&gt;&lt;br&gt;（&lt;font style=&quot;font-size: 20px&quot;&gt;1-5）&lt;/font&gt;" style="shape=step;whiteSpace=wrap;html=1;fontSize=28;fontColor=#FFFFFF;strokeColor=none;fillColor=#0075E8;" parent="1" vertex="1">
          <mxGeometry x="240" y="180" width="170" height="80" as="geometry" />
        </mxCell>
        <mxCell id="57fe6abec08f04cb-3" value="&lt;font style=&quot;font-size: 28px&quot;&gt;三周&lt;/font&gt;&lt;font style=&quot;font-size: 20px&quot;&gt;（3d）&lt;br&gt;（7,8,9）&lt;/font&gt;" style="shape=step;whiteSpace=wrap;html=1;fontSize=28;fontColor=#FFFFFF;strokeColor=none;fillColor=#0067CC;" parent="1" vertex="1">
          <mxGeometry x="390" y="180" width="170" height="80" as="geometry" />
        </mxCell>
        <mxCell id="57fe6abec08f04cb-4" value="四周&lt;font style=&quot;font-size: 20px&quot;&gt;（2d）&lt;br&gt;（19,20）&lt;/font&gt;" style="shape=step;whiteSpace=wrap;html=1;fontSize=28;fontColor=#FFFFFF;strokeColor=none;fillColor=#0062C4;" parent="1" vertex="1">
          <mxGeometry x="540" y="180" width="170" height="80" as="geometry" />
        </mxCell>
        <mxCell id="57fe6abec08f04cb-5" value="五周&lt;br&gt;（25-27）" style="shape=step;whiteSpace=wrap;html=1;fontSize=28;fillColor=#0059B0;fontColor=#FFFFFF;strokeColor=none;" parent="1" vertex="1">
          <mxGeometry x="690" y="180" width="170" height="80" as="geometry" />
        </mxCell>
        <mxCell id="57fe6abec08f04cb-6" value="二周&lt;br&gt;（25-27）" style="shape=step;whiteSpace=wrap;html=1;fontSize=28;fillColor=#004D99;fontColor=#FFFFFF;strokeColor=none;" parent="1" vertex="1">
          <mxGeometry x="840" y="180" width="170" height="80" as="geometry" />
        </mxCell>
        <mxCell id="57fe6abec08f04cb-7" value="2017" style="text;html=1;strokeColor=none;fillColor=#61BAFF;align=center;verticalAlign=middle;whiteSpace=wrap;fontSize=54;fontStyle=1;fontColor=#004D99;" parent="1" vertex="1">
          <mxGeometry x="120" y="110" width="860" height="60" as="geometry" />
        </mxCell>
        <mxCell id="57fe6abec08f04cb-8" value="&lt;div&gt;&lt;font color=&quot;#0080ff&quot;&gt;&lt;span style=&quot;font-size: 13.3333px&quot;&gt;完成以下考核项&lt;/span&gt;&lt;span style=&quot;font-size: 13.3333px&quot;&gt;&lt;br&gt;&lt;/span&gt;&lt;/font&gt;&lt;/div&gt;&lt;div&gt;&lt;span style=&quot;font-size: 13.3333px&quot;&gt;&lt;font color=&quot;#0080ff&quot;&gt;1：工作规范及制度&lt;/font&gt;&lt;/span&gt;&lt;/div&gt;&lt;div&gt;&lt;span style=&quot;font-size: 13.3333px&quot;&gt;&lt;font color=&quot;#0080ff&quot;&gt;&lt;br&gt;&lt;/font&gt;&lt;/span&gt;&lt;/div&gt;&lt;div&gt;&lt;span style=&quot;font-size: 13.3333px&quot;&gt;&lt;font color=&quot;#0080ff&quot;&gt;2：CRM周报填写规范&lt;/font&gt;&lt;/span&gt;&lt;/div&gt;&lt;div&gt;&lt;span style=&quot;font-size: 13.3333px&quot;&gt;&lt;font color=&quot;#0080ff&quot;&gt;&lt;br&gt;&lt;/font&gt;&lt;/span&gt;&lt;/div&gt;&lt;div&gt;&lt;span style=&quot;font-size: 13.3333px&quot;&gt;&lt;font color=&quot;#0080ff&quot;&gt;3：入职交流&lt;/font&gt;&lt;/span&gt;&lt;/div&gt;&lt;div&gt;&lt;span style=&quot;font-size: 13.3333px&quot;&gt;&lt;font color=&quot;#0080ff&quot;&gt;&lt;br&gt;&lt;/font&gt;&lt;/span&gt;&lt;/div&gt;&lt;div&gt;&lt;span style=&quot;font-size: 13.3333px&quot;&gt;&lt;font color=&quot;#0080ff&quot;&gt;4：产品使用(开发)&amp;nbsp; 完成 70%&lt;/font&gt;&lt;/span&gt;&lt;/div&gt;" style="text;spacingTop=-5;fillColor=#ffffff;whiteSpace=wrap;html=1;align=left;fontSize=12;fontFamily=Helvetica;fillColor=none;strokeColor=none;" parent="1" vertex="1">
          <mxGeometry x="100" y="280" width="140" height="470" as="geometry" />
        </mxCell>
        <mxCell id="57fe6abec08f04cb-9" value="&lt;div&gt;&lt;span style=&quot;font-size: 13.3333px&quot;&gt;&lt;font color=&quot;#0075e8&quot;&gt;完成以下考核项&lt;/font&gt;&lt;/span&gt;&lt;/div&gt;&lt;div&gt;&lt;span style=&quot;font-size: 13.3333px&quot;&gt;&lt;font color=&quot;#0075e8&quot;&gt;1:产品使用(开发)&amp;nbsp; &amp;nbsp; &amp;nbsp; &amp;nbsp;完成考核&lt;/font&gt;&lt;/span&gt;&lt;/div&gt;&lt;div&gt;&lt;span style=&quot;font-size: 13.3333px&quot;&gt;&lt;font color=&quot;#0075e8&quot;&gt;&lt;br&gt;&lt;/font&gt;&lt;/span&gt;&lt;/div&gt;&lt;div&gt;&lt;span style=&quot;font-size: 13.3333px&quot;&gt;&lt;font color=&quot;#0075e8&quot;&gt;2:数据挖掘&lt;/font&gt;&lt;/span&gt;&lt;/div&gt;&lt;div&gt;&lt;span style=&quot;font-size: 13.3333px&quot;&gt;&lt;font color=&quot;#0075e8&quot;&gt;&lt;br&gt;&lt;/font&gt;&lt;/span&gt;&lt;/div&gt;&lt;div&gt;&lt;span style=&quot;font-size: 13.3333px&quot;&gt;&lt;font color=&quot;#0075e8&quot;&gt;3:综合论述&lt;/font&gt;&lt;/span&gt;&lt;/div&gt;&lt;div&gt;&lt;br&gt;&lt;/div&gt;" style="text;spacingTop=-5;fillColor=#ffffff;whiteSpace=wrap;html=1;align=left;fontSize=12;fontFamily=Helvetica;fillColor=none;strokeColor=none;" parent="1" vertex="1">
          <mxGeometry x="250" y="280" width="140" height="470" as="geometry" />
        </mxCell>
        <mxCell id="57fe6abec08f04cb-10" value="&lt;div&gt;&lt;font color=&quot;#0067cc&quot;&gt;&lt;span style=&quot;font-size: 13.3333px&quot;&gt;完成以下考核项&lt;/span&gt;&lt;br&gt;&lt;/font&gt;&lt;/div&gt;&lt;div&gt;&lt;font color=&quot;#0067cc&quot;&gt;1:问答考核&lt;/font&gt;&lt;/div&gt;&lt;div&gt;&lt;font color=&quot;#0067cc&quot;&gt;&lt;br&gt;&lt;/font&gt;&lt;/div&gt;&lt;div&gt;&lt;font color=&quot;#0067cc&quot;&gt;2:定位代码常用技巧&lt;/font&gt;&lt;/div&gt;&lt;div&gt;&lt;font color=&quot;#0067cc&quot;&gt;&lt;br&gt;&lt;/font&gt;&lt;/div&gt;&lt;div&gt;&lt;font color=&quot;#0067cc&quot;&gt;3:基础技术考察&lt;/font&gt;&lt;/div&gt;" style="text;spacingTop=-5;fillColor=#ffffff;whiteSpace=wrap;html=1;align=left;fontSize=12;fontFamily=Helvetica;fillColor=none;strokeColor=none;" parent="1" vertex="1">
          <mxGeometry x="400" y="280" width="140" height="470" as="geometry" />
        </mxCell>
        <mxCell id="57fe6abec08f04cb-11" value="&lt;div&gt;&lt;div&gt;&lt;font color=&quot;#0062c4&quot;&gt;&lt;span style=&quot;font-size: 13.3333px&quot;&gt;完成以下考核项&lt;/span&gt;&lt;br&gt;&lt;/font&gt;&lt;/div&gt;&lt;div&gt;&lt;font color=&quot;#0062c4&quot;&gt;1:集成环境部署&lt;span&gt;	&lt;/span&gt;&amp;nbsp; &amp;nbsp;&lt;span&gt;					&lt;/span&gt;&lt;/font&gt;&lt;/div&gt;&lt;div&gt;&lt;font color=&quot;#0062c4&quot;&gt;&lt;br&gt;&lt;/font&gt;&lt;/div&gt;&lt;div&gt;&lt;font color=&quot;#0062c4&quot;&gt;2:Smartbi编码规范&lt;span&gt;						&lt;/span&gt;&lt;/font&gt;&lt;/div&gt;&lt;div&gt;&lt;font color=&quot;#0062c4&quot;&gt;&lt;br&gt;&lt;/font&gt;&lt;/div&gt;&lt;div&gt;&lt;font color=&quot;#0062c4&quot;&gt;3:Smartbi代码管理规范&lt;/font&gt;&lt;/div&gt;&lt;div&gt;&lt;font color=&quot;#0062c4&quot;&gt;&lt;span&gt;					&lt;/span&gt;&lt;/font&gt;&lt;/div&gt;&lt;div&gt;&lt;font color=&quot;#0062c4&quot;&gt;&lt;br&gt;&lt;/font&gt;&lt;/div&gt;&lt;div&gt;&lt;font color=&quot;#0062c4&quot;&gt;4:需求管理流程&lt;/font&gt;&lt;/div&gt;&lt;div&gt;&lt;font color=&quot;#0062c4&quot;&gt;&lt;br&gt;&lt;/font&gt;&lt;/div&gt;&lt;div&gt;&lt;font color=&quot;#0062c4&quot;&gt;5:JIRA任务处理规范&lt;/font&gt;&lt;/div&gt;&lt;div&gt;&lt;font color=&quot;#0062c4&quot;&gt;&lt;br&gt;&lt;/font&gt;&lt;/div&gt;&lt;div&gt;&lt;font color=&quot;#0062c4&quot;&gt;6:JIRA使用指引&lt;/font&gt;&lt;/div&gt;&lt;div&gt;&lt;font color=&quot;#0062c4&quot;&gt;&lt;br&gt;&lt;/font&gt;&lt;/div&gt;&lt;div&gt;&lt;font color=&quot;#0062c4&quot;&gt;7:CRM任务池报表说明&lt;/font&gt;&lt;/div&gt;&lt;/div&gt;&lt;div&gt;&lt;br&gt;&lt;/div&gt;" style="text;spacingTop=-5;fillColor=#ffffff;whiteSpace=wrap;html=1;align=left;fontSize=12;fontFamily=Helvetica;fillColor=none;strokeColor=none;" parent="1" vertex="1">
          <mxGeometry x="550" y="280" width="140" height="470" as="geometry" />
        </mxCell>
        <mxCell id="57fe6abec08f04cb-12" value="&lt;div&gt;&lt;font color=&quot;#0097c2&quot;&gt;&lt;span style=&quot;font-size: 13.3333px&quot;&gt;&lt;u&gt;待完成&lt;/u&gt;&lt;/span&gt;&lt;/font&gt;&lt;/div&gt;&lt;div&gt;&lt;font color=&quot;#0097c2&quot;&gt;&lt;span style=&quot;font-size: 13.3333px&quot;&gt;&lt;u&gt;X模块框架&lt;/u&gt;&lt;/span&gt;&lt;/font&gt;&lt;/div&gt;&lt;div&gt;&lt;font color=&quot;#0097c2&quot;&gt;&lt;span style=&quot;font-size: 13.3333px&quot;&gt;&lt;u&gt;开发人员工作CheckList&lt;/u&gt;&lt;/span&gt;&lt;/font&gt;&lt;/div&gt;" style="text;spacingTop=-5;fillColor=#ffffff;whiteSpace=wrap;html=1;align=left;fontSize=12;fontFamily=Helvetica;fillColor=none;strokeColor=none;" parent="1" vertex="1">
          <mxGeometry x="700" y="280" width="140" height="470" as="geometry" />
        </mxCell>
        <mxCell id="57fe6abec08f04cb-13" value="Lorem ipsum dolor sit amet, consectetur adipisicing elit, sed do eiusmod tempor incididunt ut labore et dolore magna aliqua. Ut enim ad minim veniam, quis nostrud exercitation ullamco laboris nisi ut aliquip ex ea commodo consequat. Duis aute irure dolor in reprehenderit in voluptate velit esse cillum dolore eu fugiat nulla pariatur. Excepteur sint occaecat cupidatat non proident, sunt in culpa qui officia deserunt mollit anim id est laborum.&lt;br&gt;Sed ut perspiciatis unde omnis iste natus error sit voluptatem accusantium doloremque laudantium, totam rem aperiam, eaque ipsa quae ab illo inventore veritatis et quasi architecto beatae vitae dicta sunt explicabo." style="text;spacingTop=-5;fillColor=#ffffff;whiteSpace=wrap;html=1;align=left;fontSize=12;fontFamily=Helvetica;fillColor=none;strokeColor=none;" parent="1" vertex="1">
          <mxGeometry x="855" y="280" width="140" height="470" as="geometry" />
        </mxCell>
      </root>
    </mxGraphModel>
  </diagram>
</mxfile>
